HIERARCHY
ROOT Hips
{
  OFFSET 0 0 0
  CHANNELS 6 Xposition Yposition Zposition Zrotation Yrotation Xrotation
  JOINT LeftThigh
  {
    OFFSET 8.409438 0 -5.917753
    CHANNELS 3 Zrotation Yrotation Xrotation
    JOINT LeftLeg
    {
      OFFSET 0 0 -42.358652
      CHANNELS 3 Zrotation Yrotation Xrotation
      JOINT LeftFoot
      {
        OFFSET 0 0 -39.357303
        CHANNELS 3 Zrotation Yrotation Xrotation
      }
    }
  }
  JOINT RightThigh
  {
    OFFSET -8.409438 0 -5.917753
    CHANNELS 3 Zrotation Yrotation Xrotation
    JOINT RightLeg
    {
      OFFSET 0 0 -42.358652
      CHANNELS 3 Zrotation Yrotation Xrotation
      JOINT RightFoot
      {
        OFFSET 0 0 -39.357303
        CHANNELS 3 Zrotation Yrotation Xrotation
      }
    }
  }
  JOINT SpineLow
  {
    OFFSET 0 0 4.719101
    CHANNELS 3 Zrotation Yrotation Xrotation
    JOINT SpineMid
    {
      OFFSET 0 0 12.899191
      CHANNELS 3 Zrotation Yrotation Xrotation
      JOINT Chest
      {
        OFFSET 0 0 12.899191
        CHANNELS 3 Zrotation Yrotation Xrotation
        JOINT LeftShoulder
        {
          OFFSET 7.550562 1.41573 9.438202
          CHANNELS 3 Zrotation Yrotation Xrotation
          JOINT LeftArm
          {
            OFFSET 9.155056 0 4.247191
            CHANNELS 3 Zrotation Yrotation Xrotation
            JOINT LeftForearm
            {
              OFFSET 0 0 25.771955
              CHANNELS 3 Zrotation Yrotation Xrotation
              JOINT LeftHand
              {
                OFFSET 0 0 25.197169
                CHANNELS 3 Zrotation Yrotation Xrotation
              }
            }
          }
        }
        JOINT RightShoulder
        {
          OFFSET -7.550562 1.41573 9.438202
          CHANNELS 3 Zrotation Yrotation Xrotation
          JOINT RightArm
          {
            OFFSET -9.155056 0 4.247191
            CHANNELS 3 Zrotation Yrotation Xrotation
            JOINT RightForearm
            {
              OFFSET 0 0 -25.771955
              CHANNELS 3 Zrotation Yrotation Xrotation
              JOINT RightHand
              {
                OFFSET 0 0 -25.197169
                CHANNELS 3 Zrotation Yrotation Xrotation
              }
            }
          }
        }
        JOINT Neck
        {
          OFFSET 0 0 15.101124
          CHANNELS 3 Zrotation Yrotation Xrotation
          JOINT Head
          {
            OFFSET 0 0 11.325843
            CHANNELS 3 Zrotation Yrotation Xrotation
            End Site
            {
              OFFSET 0 0 14.157303
            }
          }
        }
      }
    }
  }
}
MOTION
Frames: 10
Frame Time: 0.0
0.0  101.685394  0.0  6.148163  18.837603  -99.20898  28.892737  -24.269443  27.994311  -3.039698  4.103454  30.991423  -16.454471  -7.937618  -11.788319  -15.812988  5.367657  -34.727294  5.814546  12.16395  52.31215  21.420999  3.252759  1.873804  -2.905499  1.079233  3.022825  -7.798691  3.302509  8.125412  -7.79869  3.302509  8.125412  -11.830429  28.56316  1.643717  136.585713  65.695936  -160.897778  -42.038604  -38.548817  86.147065  35.540918  -26.12842  15.579793  17.320694  -7.57807  18.211902  76.751332  46.694709  28.163348  -31.641782  11.536724  -105.520952  75.827121  17.10601  30.619808  3.334418  -0.022248  -1.878309  2.500773  -0.026936  -1.40866  
0.0  101.685394  0.0  6.050212  18.996655  -99.198557  28.595551  -23.957543  27.935518  -3.441462  3.79882  30.103448  -16.124072  -7.484738  -11.331243  -16.560606  5.199688  -34.634996  5.910347  12.093222  51.87332  21.650007  3.157149  1.916195  -2.935325  1.060752  2.975022  -7.884802  3.250155  7.995312  -7.884802  3.250155  7.995312  -11.527315  28.762518  1.847947  135.758866  65.749732  -161.533317  -42.128506  -38.629097  85.894614  35.458247  -26.282199  15.651192  17.251153  -7.578528  18.09112  77.342118  46.268479  28.439623  -31.955918  11.576675  -105.432005  75.779768  17.294242  30.108985  3.267019  0.043999  -1.765301  2.450416  0.023564  -1.324256  
0.0  101.685394  0.0  5.919969  19.173453  -99.169428  28.387796  -23.837386  28.023859  -3.590743  3.717307  29.67127  -15.972577  -7.498009  -11.280963  -17.094257  5.062957  -34.616695  5.890947  12.075278  51.551431  21.80735  3.057304  1.932925  -2.958216  1.036835  2.962555  -7.950676  3.186243  7.962754  -7.950677  3.186243  7.962754  -11.446145  29.002232  1.729552  134.803522  65.845385  -162.46617  -42.214512  -38.494365  85.680214  35.329646  -26.175318  15.806416  17.330938  -7.546544  17.880219  77.362692  46.068166  28.384801  -31.991948  11.610084  -105.455742  75.816308  17.414586  29.830799  3.133062  0.051265  -1.799924  2.349972  0.029222  -1.350247  
0.0  101.685394  0.0  5.715437  19.273582  -99.146483  27.990412  -23.57306  27.648709  -3.800329  3.609805  29.481148  -15.57658  -7.317655  -11.078413  -17.352359  4.908764  -34.644403  5.740711  12.09403  51.331092  22.079351  2.952004  1.963498  -2.993694  0.998667  2.94996  -8.052517  3.084958  7.930886  -8.052517  3.084958  7.930887  -11.350408  29.251169  1.526684  133.741003  65.881488  -163.467514  -42.366254  -38.242833  85.446013  35.09727  -25.765024  16.002306  17.403389  -7.494334  17.540586  77.612072  45.698609  28.555698  -32.385055  11.831382  -105.311166  75.787134  17.610529  29.08338  2.970091  0.082082  -1.921239  2.227852  0.052226  -1.441368  
0.0  101.685394  0.0  5.492957  19.338724  -99.085037  27.838938  -23.499889  27.624816  -4.037228  3.578467  29.061044  -15.312282  -7.302337  -10.963283  -17.406583  4.764724  -34.726642  5.471263  12.204046  51.170214  22.309897  2.791173  1.951397  -3.003466  0.960787  2.968476  -8.082574  2.98515  7.985318  -8.082573  2.98515  7.985317  -11.461234  29.412907  1.139686  132.59235  65.905412  -164.587528  -42.525944  -37.856241  85.257198  34.798782  -25.27079  16.204399  17.434427  -7.377038  17.15149  77.467693  45.512478  28.458989  -32.420227  11.989665  -105.400294  75.821775  17.630966  28.692863  2.75173  -0.018059  -2.130725  2.063765  -0.023139  -1.598001  
0.0  101.685394  0.0  5.156063  19.442363  -98.974638  27.774914  -23.491089  27.136215  -4.327263  3.518061  28.908462  -15.008572  -7.209002  -10.797682  -17.655478  4.561405  -34.967592  5.411795  12.007845  51.228748  22.63736  2.726078  1.940615  -3.063898  0.928477  2.951596  -8.25207  2.902255  7.940079  -8.252071  2.902255  7.940079  -11.302955  29.484277  0.965697  131.517069  65.911058  -165.645802  -42.657152  -37.540999  84.95627  34.544121  -24.906864  16.380654  17.620073  -7.33437  16.893919  77.446913  45.24175  28.445168  -33.157512  12.459459  -105.100243  75.309261  17.981596  27.565175  2.565757  -0.169789  -2.368642  1.923693  -0.137291  -1.775805  
0.0  101.685394  0.0  4.89382  19.381136  -98.799421  27.747798  -23.362608  26.913137  -4.335682  3.4135  28.612257  -14.904396  -7.194741  -10.691273  -17.330412  4.245552  -35.065259  4.989775  12.363185  51.129761  22.926536  2.577161  1.829937  -3.036682  0.902165  2.953057  -8.180666  2.827526  7.948442  -8.180666  2.827526  7.948442  -11.692563  29.454228  0.694342  130.438649  65.976967  -166.74119  -42.753267  -37.289176  84.567303  34.48151  -24.746548  16.505586  17.463205  -7.292969  16.559807  77.141819  45.055635  28.314922  -33.203309  12.708867  -105.216434  75.347176  17.938126  26.938801  2.251121  -0.412003  -2.593377  1.686621  -0.318566  -1.943538  
0.0  101.685394  0.0  4.54386  19.223974  -98.652332  27.9267  -23.403098  26.561138  -4.332876  3.263808  28.373508  -14.682262  -6.968093  -10.491169  -17.130205  3.970139  -35.22385  4.807261  12.382274  51.204564  23.475918  2.445369  1.723038  -3.099391  0.908831  2.897533  -8.353747  2.846194  7.793134  -8.353747  2.846194  7.793134  -11.348225  29.351617  0.838761  129.434293  66.075011  -167.797764  -42.803912  -37.133272  84.081099  34.615865  -24.760212  16.513654  17.77258  -7.451131  16.47897  77.291424  44.649807  28.448239  -34.080985  13.25603  -104.871415  74.816548  18.290553  25.4621  2.239141  -0.707519  -2.738599  1.676204  -0.540695  -2.051363  
0.0  101.685394  0.0  4.317953  19.06776  -98.440049  27.97592  -23.332573  26.307998  -4.16291  3.161927  28.16282  -14.773868  -6.925074  -10.436395  -16.482204  3.749829  -35.212963  4.241006  12.764288  51.05898  23.781157  2.270696  1.56845  -3.082152  0.903477  2.877982  -8.308174  2.827174  7.741202  -8.308174  2.827174  7.741202  -11.445327  29.178617  0.890997  128.338812  66.198053  -168.623862  -42.779907  -37.010253  83.544444  34.798683  -24.80933  16.464764  17.588966  -7.406948  16.320332  76.874714  44.465538  28.162653  -34.099137  13.505083  -104.957523  74.857822  18.241929  24.34528  2.022525  -0.981267  -2.931268  1.512191  -0.745681  -2.195178  
0.0  101.685394  0.0  3.777717  18.082893  -98.698838  29.042767  -23.963298  26.16437  -4.270649  3.023856  27.824395  -14.699913  -6.686857  -10.281096  -15.137163  3.514015  -34.872821  3.72451  12.658046  51.074206  23.837044  2.13955  1.4139  -2.999977  0.880079  2.880421  -8.086245  2.754215  7.754383  -8.086245  2.754215  7.754383  -11.346602  29.128894  1.058216  127.160811  66.369022  -169.611641  -42.774958  -36.90246  82.925551  34.793424  -24.723711  16.440887  17.674038  -7.397737  16.326463  77.207514  43.906611  28.303989  -35.079912  13.994918  -104.616271  74.437425  18.527993  22.494595  1.95884  -1.206431  -3.066334  1.463066  -0.914689  -2.295827  
